<?xml version="1.0" encoding="UTF-8" standalone="no"?>
<!DOCTYPE svg PUBLIC "-//W3C//DTD SVG 1.1//EN"
 "http://www.w3.org/Graphics/SVG/1.1/DTD/svg11.dtd">
<!-- Generated by graphviz version 2.40.1 (20161225.0304)
 -->
<!-- Title: dependencies Pages: 1 -->
<svg width="628pt" height="290pt"
 viewBox="0.00 0.00 628.00 290.00" xmlns="http://www.w3.org/2000/svg" xmlns:xlink="http://www.w3.org/1999/xlink">
<g id="graph0" class="graph" transform="scale(1 1) rotate(0) translate(4 286)">
<title>dependencies</title>
<polygon fill="#ffffff" stroke="transparent" points="-4,4 -4,-286 624,-286 624,4 -4,4"/>
<text text-anchor="start" x="289.0091" y="-42.4" font-family="sans-serif" font-weight="bold" font-size="14.00" fill="#000000">Legend</text>
<polygon fill="#ffffb3" stroke="transparent" points="76,-10 76,-30 96,-30 96,-10 76,-10"/>
<text text-anchor="start" x="99.629" y="-15.4" font-family="sans-serif" font-size="14.00" fill="#000000"> &#160;Declarations</text>
<polygon fill="#8dd3c7" stroke="transparent" points="189,-10 189,-30 209,-30 209,-10 189,-10"/>
<text text-anchor="start" x="212.7251" y="-15.4" font-family="sans-serif" font-size="14.00" fill="#000000"> &#160;Module</text>
<polygon fill="#80b1d3" stroke="transparent" points="275,-10 275,-30 295,-30 295,-10 275,-10"/>
<text text-anchor="start" x="298.7812" y="-15.4" font-family="sans-serif" font-size="14.00" fill="#000000"> &#160;Bootstrap</text>
<polygon fill="#fdb462" stroke="transparent" points="372,-10 372,-30 392,-30 392,-10 372,-10"/>
<text text-anchor="start" x="395.6732" y="-15.4" font-family="sans-serif" font-size="14.00" fill="#000000"> &#160;Providers</text>
<polygon fill="#fb8072" stroke="transparent" points="468,-10 468,-30 488,-30 488,-10 468,-10"/>
<text text-anchor="start" x="491.7258" y="-15.4" font-family="sans-serif" font-size="14.00" fill="#000000"> &#160;Exports</text>
<g id="clust1" class="cluster">
<title>cluster_AppModule</title>
<polygon fill="none" stroke="#000000" stroke-dasharray="1,5" points="8,-70 8,-274 280,-274 280,-70 8,-70"/>
</g>
<g id="clust2" class="cluster">
<title>cluster_AppModule_declarations</title>
<polygon fill="none" stroke="#000000" points="16,-78 16,-130 138,-130 138,-78 16,-78"/>
</g>
<g id="clust4" class="cluster">
<title>cluster_AppModule_imports</title>
<polygon fill="none" stroke="#000000" points="146,-78 146,-130 272,-130 272,-78 146,-78"/>
</g>
<g id="clust6" class="cluster">
<title>cluster_AppModule_bootstrap</title>
<polygon fill="none" stroke="#000000" points="81,-214 81,-266 205,-266 205,-214 81,-214"/>
</g>
<g id="clust8" class="cluster">
<title>cluster_CalendarModule</title>
<polygon fill="none" stroke="#000000" stroke-dasharray="1,5" points="288,-138 288,-206 612,-206 612,-138 288,-138"/>
</g>
<g id="clust9" class="cluster">
<title>cluster_CalendarModule_declarations</title>
<polygon fill="none" stroke="#000000" points="456,-146 456,-198 604,-198 604,-146 456,-146"/>
</g>
<g id="clust12" class="cluster">
<title>cluster_CalendarModule_exports</title>
<polygon fill="none" stroke="#000000" points="296,-146 296,-198 448,-198 448,-146 296,-146"/>
</g>
<!-- AppComponent -->
<g id="node1" class="node">
<title>AppComponent</title>
<polygon fill="#ffffb3" stroke="#000000" points="129.9399,-122 24.0601,-122 24.0601,-86 129.9399,-86 129.9399,-122"/>
<text text-anchor="middle" x="77" y="-99.8" font-family="Times,serif" font-size="14.00" fill="#000000">AppComponent</text>
</g>
<!-- AppModule -->
<g id="node2" class="node">
<title>AppModule</title>
<polygon fill="#8dd3c7" stroke="#000000" points="184.6571,-190 181.6571,-194 160.6571,-194 157.6571,-190 101.3429,-190 101.3429,-154 184.6571,-154 184.6571,-190"/>
<text text-anchor="middle" x="143" y="-167.8" font-family="Times,serif" font-size="14.00" fill="#000000">AppModule</text>
</g>
<!-- AppComponent&#45;&gt;AppModule -->
<g id="edge1" class="edge">
<title>AppComponent&#45;&gt;AppModule</title>
<path fill="none" stroke="#000000" d="M120.2036,-122.2228C120.2036,-122.2228 120.2036,-143.7269 120.2036,-143.7269"/>
<polygon fill="#000000" stroke="#000000" points="116.7037,-143.7269 120.2036,-153.7269 123.7037,-143.727 116.7037,-143.7269"/>
</g>
<!-- AppComponent&#45;&gt;AppModule -->
<g id="edge4" class="edge">
<title>AppComponent&#45;&gt;AppModule</title>
<path fill="none" stroke="#000000" d="M110.6877,-122.2228C110.6877,-122.2228 110.6877,-143.7269 110.6877,-143.7269"/>
<polygon fill="#000000" stroke="#000000" points="107.1878,-143.7269 110.6877,-153.7269 114.1878,-143.727 107.1878,-143.7269"/>
</g>
<!-- AppComponent  -->
<g id="node4" class="node">
<title>AppComponent </title>
<polygon fill="#80b1d3" stroke="#000000" points="197.439,-258 88.561,-258 88.561,-222 197.439,-222 197.439,-258"/>
<text text-anchor="middle" x="143" y="-235.8" font-family="Times,serif" font-size="14.00" fill="#000000">AppComponent </text>
</g>
<!-- AppModule&#45;&gt;AppComponent  -->
<g id="edge3" class="edge">
<title>AppModule&#45;&gt;AppComponent </title>
<path fill="none" stroke="#000000" stroke-dasharray="1,5" d="M129.0573,-190.2228C129.0573,-190.2228 129.0573,-211.7269 129.0573,-211.7269"/>
<polygon fill="#000000" stroke="#000000" points="125.5574,-211.7269 129.0573,-221.7269 132.5574,-211.727 125.5574,-211.7269"/>
</g>
<!-- AppModule&#45;&gt;AppComponent  -->
<g id="edge6" class="edge">
<title>AppModule&#45;&gt;AppComponent </title>
<path fill="none" stroke="#000000" stroke-dasharray="1,5" d="M156.9427,-190.2228C156.9427,-190.2228 156.9427,-211.7269 156.9427,-211.7269"/>
<polygon fill="#000000" stroke="#000000" points="153.4428,-211.7269 156.9427,-221.7269 160.4428,-211.727 153.4428,-211.7269"/>
</g>
<!-- CalendarModule -->
<g id="node3" class="node">
<title>CalendarModule</title>
<polygon fill="#8dd3c7" stroke="#000000" points="264.0814,-122 261.0814,-126 240.0814,-126 237.0814,-122 153.9186,-122 153.9186,-86 264.0814,-86 264.0814,-122"/>
<text text-anchor="middle" x="209" y="-99.8" font-family="Times,serif" font-size="14.00" fill="#000000">CalendarModule</text>
</g>
<!-- CalendarModule&#45;&gt;AppModule -->
<g id="edge2" class="edge">
<title>CalendarModule&#45;&gt;AppModule</title>
<path fill="none" stroke="#000000" d="M164.2489,-122.2228C164.2489,-122.2228 164.2489,-143.7269 164.2489,-143.7269"/>
<polygon fill="#000000" stroke="#000000" points="160.749,-143.7269 164.2489,-153.7269 167.749,-143.727 160.749,-143.7269"/>
</g>
<!-- CalendarModule&#45;&gt;AppModule -->
<g id="edge5" class="edge">
<title>CalendarModule&#45;&gt;AppModule</title>
<path fill="none" stroke="#000000" d="M174.5386,-122.2228C174.5386,-122.2228 174.5386,-143.7269 174.5386,-143.7269"/>
<polygon fill="#000000" stroke="#000000" points="171.0387,-143.7269 174.5386,-153.7269 178.0387,-143.727 171.0387,-143.7269"/>
</g>
<!-- CalendarComponent  -->
<g id="node6" class="node">
<title>CalendarComponent </title>
<polygon fill="#fb8072" stroke="#000000" points="439.8645,-190 304.1355,-190 304.1355,-154 439.8645,-154 439.8645,-190"/>
<text text-anchor="middle" x="372" y="-167.8" font-family="Times,serif" font-size="14.00" fill="#000000">CalendarComponent </text>
</g>
<!-- CalendarModule&#45;&gt;CalendarComponent  -->
<g id="edge8" class="edge">
<title>CalendarModule&#45;&gt;CalendarComponent </title>
<path fill="none" stroke="#000000" stroke-dasharray="5,2" d="M241.8503,-122.2667C241.8503,-140.5552 241.8503,-166 241.8503,-166 241.8503,-166 294.2567,-166 294.2567,-166"/>
<polygon fill="#000000" stroke="#000000" points="294.2568,-169.5001 304.2567,-166 294.2567,-162.5001 294.2568,-169.5001"/>
</g>
<!-- CalendarModule&#45;&gt;CalendarComponent  -->
<g id="edge10" class="edge">
<title>CalendarModule&#45;&gt;CalendarComponent </title>
<path fill="none" stroke="#000000" stroke-dasharray="5,2" d="M219.6599,-122.2921C219.6599,-144.2057 219.6599,-178 219.6599,-178 219.6599,-178 294.2942,-178 294.2942,-178"/>
<polygon fill="#000000" stroke="#000000" points="294.2943,-181.5001 304.2942,-178 294.2942,-174.5001 294.2943,-181.5001"/>
</g>
<!-- CalendarComponent -->
<g id="node5" class="node">
<title>CalendarComponent</title>
<polygon fill="#ffffb3" stroke="#000000" points="595.8641,-190 464.1359,-190 464.1359,-154 595.8641,-154 595.8641,-190"/>
<text text-anchor="middle" x="530" y="-167.8" font-family="Times,serif" font-size="14.00" fill="#000000">CalendarComponent</text>
</g>
<!-- CalendarComponent&#45;&gt;CalendarModule -->
<g id="edge7" class="edge">
<title>CalendarComponent&#45;&gt;CalendarModule</title>
<path fill="none" stroke="#000000" d="M551.9773,-153.7079C551.9773,-131.7943 551.9773,-98 551.9773,-98 551.9773,-98 274.1052,-98 274.1052,-98"/>
<polygon fill="#000000" stroke="#000000" points="274.1053,-94.5001 264.1052,-98 274.1052,-101.5001 274.1053,-94.5001"/>
</g>
<!-- CalendarComponent&#45;&gt;CalendarModule -->
<g id="edge9" class="edge">
<title>CalendarComponent&#45;&gt;CalendarModule</title>
<path fill="none" stroke="#000000" d="M508.0227,-153.7333C508.0227,-135.4448 508.0227,-110 508.0227,-110 508.0227,-110 274.1938,-110 274.1938,-110"/>
<polygon fill="#000000" stroke="#000000" points="274.1939,-106.5001 264.1938,-110 274.1938,-113.5001 274.1939,-106.5001"/>
</g>
</g>
</svg>
